<svg width="25" height="14" viewBox="0 0 25 14" fill="none" xmlns="http://www.w3.org/2000/svg">
<path fill-rule="evenodd" clip-rule="evenodd" d="M10.6865 13.375L0.696911 4.41522C0.250884 4.01844 3.58649e-08 3.47832 2.83198e-08 2.91488C2.07746e-08 2.35143 0.250884 1.81132 0.696911 1.41454C1.61585 0.595219 3.09998 0.595219 4.01892 1.41454L12.3593 8.8951L20.6996 1.41454C21.6186 0.595219 23.1027 0.595219 24.0216 1.41454C24.4627 1.81333 24.7085 2.35319 24.7049 2.91488C24.7085 3.47656 24.4627 4.01642 24.0216 4.41521L14.0321 13.375C13.5897 13.775 12.9875 14 12.3593 14C11.7311 14 11.1289 13.775 10.6865 13.375Z" fill="#7981AD"/>
</svg>
