<svg width="18" height="18" viewBox="0 0 18 18" fill="none" xmlns="http://www.w3.org/2000/svg">
<path fill-rule="evenodd" clip-rule="evenodd" d="M16.9593 5.28722L12.7518 1.04222C12.6102 0.90183 12.4186 0.823567 12.2193 0.82472C12.0225 0.825548 11.834 0.903661 11.6943 1.04222L1.04427 11.6547C0.753474 11.9472 0.753474 12.4197 1.04427 12.7122L5.28927 16.9572C5.43081 17.0976 5.62241 17.1759 5.82177 17.1747C6.01852 17.1739 6.20707 17.0958 6.34677 16.9572L8.46927 14.8347L14.8368 8.46722L16.9593 6.34472C17.2501 6.05219 17.2501 5.57975 16.9593 5.28722ZM14.3038 6.87732L13.7713 6.34482C13.4788 6.05403 13.0063 6.05403 12.7138 6.34482C12.5718 6.48565 12.4919 6.67735 12.4919 6.87732C12.4919 7.0773 12.5718 7.269 12.7138 7.40982L13.2463 7.94232L12.1813 8.99982L10.5913 7.40982C10.2937 7.15499 9.85014 7.17212 9.57312 7.44915C9.29609 7.72618 9.27896 8.16975 9.53379 8.46732L11.1238 10.0573L10.0588 11.1223L9.53379 10.5898C9.2397 10.2957 8.76288 10.2957 8.46879 10.5898C8.1747 10.8839 8.1747 11.3607 8.46879 11.6548L9.00129 12.1798L7.94379 13.2448L6.34629 11.6548C6.05376 11.364 5.58132 11.364 5.28879 11.6548C4.998 11.9474 4.998 12.4198 5.28879 12.7123L6.87879 14.3023L5.82129 15.3673L2.63379 12.1798L12.1813 2.63232L15.3688 5.81982L14.3038 6.87732Z" fill="#524983"/>
</svg>
