<svg width="26" height="26" viewBox="0 0 26 26" fill="none" xmlns="http://www.w3.org/2000/svg">
<path fill-rule="evenodd" clip-rule="evenodd" d="M15.4095 20.4998C16.0962 20.4998 16.6529 19.9402 16.6529 19.2498V16.7498C16.6529 16.0595 16.0962 15.4998 15.4095 15.4998C14.7228 15.4998 14.1661 16.0595 14.1661 16.7498V19.2498C14.1661 19.9402 14.7228 20.4998 15.4095 20.4998ZM10.4366 20.4998C11.1233 20.4998 11.68 19.9402 11.68 19.2498V16.7498C11.68 16.0595 11.1233 15.4998 10.4366 15.4998C9.74987 15.4998 9.19317 16.0595 9.19317 16.7498V19.2498C9.19317 19.9402 9.74987 20.4998 10.4366 20.4998ZM21.6267 5.49996H19.9107L17.7596 1.18746C17.5805 0.754908 17.1757 0.459416 16.7111 0.421979C16.2465 0.384542 15.8001 0.611448 15.5547 1.00978C15.3092 1.40812 15.306 1.91098 15.5463 2.31246L17.1255 5.49996H8.71995L10.2991 2.31246C10.5495 1.70805 10.2935 1.01184 9.71228 0.716413C9.13108 0.420991 8.42159 0.626465 8.08581 1.18746L5.93469 5.49996H4.21877C2.40438 5.5277 0.87306 6.86398 0.59068 8.66597C0.308301 10.4679 1.35679 12.2128 3.07482 12.8L3.99495 22.125C4.18722 24.0483 5.80235 25.5096 7.72522 25.5H18.1451C20.068 25.5096 21.6831 24.0483 21.8753 22.125L22.7955 12.8C24.5175 12.211 25.5659 10.4592 25.2768 8.65389C24.9878 6.84853 23.4456 5.51599 21.6267 5.49996ZM19.3754 21.8749C19.3113 22.516 18.7729 23.0031 18.132 22.9999H7.71212C7.07117 23.0031 6.53279 22.516 6.4687 21.8749L5.58587 12.9999H20.2582L19.3754 21.8749ZM21.6274 10.4998H4.21951C3.53279 10.4998 2.97609 9.94019 2.97609 9.24984C2.97609 8.55948 3.53279 7.99983 4.21951 7.99983H21.6274C22.3141 7.99983 22.8708 8.55948 22.8708 9.24984C22.8708 9.94019 22.3141 10.4998 21.6274 10.4998Z" fill="#FAFAFA"/>
</svg>
