<svg width="52" height="52" viewBox="0 0 52 52" fill="none" xmlns="http://www.w3.org/2000/svg">
<path fill-rule="evenodd" clip-rule="evenodd" d="M35.275 16.7254C34.8056 16.2521 34.1666 15.9859 33.5 15.9859C32.8334 15.9859 32.1944 16.2521 31.725 16.7254L26 22.4754L20.275 16.7254C19.2947 15.745 17.7053 15.745 16.725 16.7254C15.7447 17.7057 15.7447 19.295 16.725 20.2754L22.475 26.0004L16.725 31.7254C16.2517 32.1948 15.9855 32.8338 15.9855 33.5004C15.9855 34.167 16.2517 34.8059 16.725 35.2754C17.1944 35.7486 17.8334 36.0149 18.5 36.0149C19.1666 36.0149 19.8055 35.7486 20.275 35.2754L26 29.5254L31.725 35.2754C32.1944 35.7486 32.8334 36.0149 33.5 36.0149C34.1666 36.0149 34.8056 35.7486 35.275 35.2754C35.7483 34.8059 36.0145 34.167 36.0145 33.5004C36.0145 32.8338 35.7483 32.1948 35.275 31.7254L29.525 26.0004L35.275 20.2754C35.7483 19.8059 36.0145 19.1669 36.0145 18.5004C36.0145 17.8338 35.7483 17.1948 35.275 16.7254ZM43.675 8.32521C37.3981 1.82629 28.103 -0.780107 19.3623 1.50778C10.6215 3.79566 3.79542 10.6218 1.50753 19.3625C-0.780352 28.1033 1.82605 37.3983 8.32496 43.6752C14.6018 50.1741 23.8969 52.7805 32.6376 50.4926C41.3784 48.2048 48.2045 41.3786 50.4924 32.6379C52.7803 23.8972 50.1739 14.6021 43.675 8.32521ZM40.15 40.1502C33.4072 46.9005 22.8352 47.948 14.8988 42.6521C6.96249 37.3563 3.87203 27.1919 7.51732 18.3746C11.1626 9.55741 20.5285 4.54281 29.8875 6.39736C39.2466 8.25191 45.9925 16.4591 46 26.0002C46.018 31.3088 43.9115 36.4041 40.15 40.1502Z" fill="#3E3E3E"/>
</svg>
